<svg width="1997" height="1747" viewBox="0 0 1997 1747" fill="none" xmlns="http://www.w3.org/2000/svg">
<path fill-rule="evenodd" clip-rule="evenodd" d="M1446.54 43.6602L1527.84 55.4889L1552.88 75.3096L1399.1 269.614L1435.32 298.286L1417.2 321.183L1318.56 243.11L1336.68 220.213L1372.91 248.886L1505.32 81.583L1442.58 72.231L1446.54 43.6602ZM1449.95 48.1983L1447.09 68.8585L1512.75 78.6458L1373.56 254.505L1337.33 225.832L1324.18 242.456L1416.55 315.564L1429.7 298.94L1393.48 270.268L1547.27 75.9637L1526.2 59.2924L1449.95 48.1983ZM1670.57 165.519C1652.32 151.081 1635.63 144.407 1620.42 145.031L1620.42 145.031C1605.65 145.609 1592.59 152.889 1581.23 167.247L1549.95 206.767C1538.6 221.107 1534.52 235.678 1537.39 250.592C1540.46 265.368 1549.93 279.193 1566.15 292.029C1582.65 305.087 1597.1 310.338 1609.64 308.504L1614.62 307.774L1564.84 370.674C1557.95 379.386 1549.73 383.893 1540.23 383.753C1530.87 383.614 1520.64 378.95 1509.62 370.225C1498.59 361.499 1491.71 352.619 1489.42 343.534C1487.1 334.326 1489.6 325.293 1496.5 316.581L1513.24 295.426L1493.32 279.662L1477.62 299.5C1465.72 314.541 1461.52 329.146 1464.56 343.436C1467.61 357.817 1478.09 372.305 1496.46 386.848C1514.84 401.391 1531.34 408.256 1546.04 407.928C1560.65 407.603 1573.9 400.161 1585.8 385.12L1688.56 255.286L1686.01 253.27L1690.57 252.739C1701.54 238.607 1705.35 224.367 1702.36 209.906L1702.36 209.893L1702.35 209.879C1699.47 194.939 1689.03 180.136 1670.57 165.519ZM1694.17 254.623C1705.37 239.938 1709.51 224.73 1706.28 209.108C1703.14 192.862 1691.9 177.303 1673.05 162.383C1654.41 147.628 1636.79 140.356 1620.26 141.034C1604.08 141.668 1590.01 149.703 1578.09 164.765L1546.81 204.284C1534.88 219.36 1530.33 235.09 1533.47 251.363L1533.47 251.376L1533.47 251.39C1536.78 267.36 1546.96 281.94 1563.67 295.166C1578.68 307.05 1592.66 313.116 1605.5 312.851L1561.7 368.191C1555.39 376.165 1548.27 379.871 1540.29 379.753C1532.19 379.633 1522.81 375.566 1512.1 367.088C1501.39 358.611 1495.28 350.417 1493.3 342.557C1491.35 334.82 1493.32 327.037 1499.63 319.064L1518.86 294.772L1492.67 274.043L1474.49 297.018C1462.06 312.714 1457.29 328.504 1460.64 344.267C1463.97 359.939 1475.25 375.16 1493.98 389.984C1512.71 404.809 1530.11 412.285 1546.13 411.927C1562.24 411.568 1576.51 403.299 1588.94 387.602L1694.18 254.632L1694.17 254.623ZM1626.57 169.009C1636.19 168.958 1646.59 173.582 1657.74 182.403C1668.88 191.224 1675.77 200.292 1677.93 209.658C1680.12 219.13 1677.37 228.496 1670.15 237.625L1638.87 277.144C1631.64 286.272 1623.16 291.095 1613.44 291.146C1603.83 291.196 1593.42 286.573 1582.27 277.752C1571.13 268.931 1564.24 259.863 1562.08 250.497C1559.89 241.025 1562.64 231.658 1569.86 222.53L1601.14 183.011C1608.37 173.882 1616.85 169.059 1626.57 169.009ZM1626.6 173.009C1618.39 173.051 1610.96 177.057 1604.28 185.493L1573 225.013C1566.32 233.449 1564.13 241.6 1565.98 249.598C1567.84 257.703 1573.94 266.059 1584.75 274.615C1595.56 283.171 1605.1 287.19 1613.42 287.146C1621.62 287.103 1629.05 283.098 1635.73 274.662L1667.01 235.142C1673.69 226.706 1675.88 218.555 1674.04 210.556C1672.17 202.452 1666.07 194.095 1655.26 185.539C1644.45 176.984 1634.91 172.965 1626.6 173.009ZM1836.79 300.016L1862.3 320.205L1747.61 465.11L1764.08 478.143L1745.96 501.039L1729.49 488.006L1690.39 537.406L1664.2 516.677L1703.3 467.278L1616.03 398.204L1633.25 376.44L1836.79 300.016ZM1635.7 379.794L1621.65 397.55L1708.92 466.624L1669.82 516.023L1689.74 531.787L1728.83 482.387L1745.3 495.42L1758.46 478.797L1741.99 465.764L1856.68 320.859L1836.08 304.556L1635.7 379.794ZM1812.24 336.083L1722.08 450.001L1653.51 395.735L1812.24 336.083ZM1661.54 396.99L1721.42 444.382L1800.16 344.894L1661.54 396.99ZM1960.22 394.775C1941.98 380.337 1925.28 373.663 1910.08 374.287L1910.07 374.287C1895.3 374.865 1882.25 382.145 1870.88 396.503L1766.62 528.235C1755.27 542.575 1751.19 557.146 1754.07 572.06C1757.12 586.791 1767.54 601.403 1785.79 615.843C1804.27 630.47 1820.87 637.24 1835.68 636.661C1850.86 636.036 1864.1 628.719 1875.46 614.376L1979.72 482.644C1991.07 468.298 1995.06 453.844 1992.01 439.162L1992.01 439.149L1992.01 439.135C1989.12 424.195 1978.69 409.392 1960.22 394.775ZM1909.91 370.29C1926.45 369.612 1944.06 376.884 1962.7 391.639C1981.56 406.559 1992.79 422.117 1995.93 438.364C1999.26 454.429 1994.78 470.056 1982.85 485.126L1878.59 616.858C1866.66 631.934 1852.4 639.978 1835.84 640.657L1835.83 640.658C1819.68 641.289 1802.15 633.894 1783.3 618.98C1764.67 604.231 1753.46 588.874 1750.15 572.858L1750.14 572.845L1750.14 572.831C1747 556.559 1751.55 540.828 1763.48 525.753L1867.75 394.021C1879.67 378.959 1893.73 370.924 1909.91 370.29ZM1909.91 370.29C1909.91 370.29 1909.92 370.29 1909.92 370.29L1909.99 372.289L1909.91 370.29C1909.91 370.29 1909.91 370.29 1909.91 370.29ZM1916.23 398.265C1925.84 398.214 1936.25 402.838 1947.39 411.659C1958.54 420.48 1965.43 429.548 1967.59 438.914C1969.77 448.386 1967.03 457.752 1959.8 466.881L1855.54 598.612C1848.31 607.741 1839.83 612.564 1830.11 612.614C1820.5 612.665 1810.09 608.041 1798.94 599.22C1787.8 590.399 1780.91 581.331 1778.75 571.965C1776.57 562.493 1779.31 553.127 1786.54 543.999L1890.8 412.267C1898.02 403.138 1906.51 398.315 1916.23 398.265ZM1916.25 402.265C1908.04 402.307 1900.61 406.313 1893.94 414.749L1789.67 546.481C1783 554.917 1780.8 563.068 1782.65 571.067C1784.52 579.171 1790.62 587.528 1801.43 596.083C1812.24 604.639 1821.77 608.658 1830.09 608.614C1838.3 608.572 1845.73 604.566 1852.4 596.13L1956.67 464.398C1963.34 455.962 1965.53 447.811 1963.69 439.812C1961.82 431.708 1955.72 423.351 1944.91 414.796C1934.1 406.24 1924.57 402.221 1916.25 402.265Z" fill="white" fill-opacity="0.6"/>
<path d="M1527.03 804.731L1429.87 727.838L1599.3 513.773L1693.16 588.061L1677.52 607.82L1606.71 551.779L1546.76 627.525L1604.4 673.14L1588.76 692.9L1531.12 647.285L1468.57 726.324L1542.66 784.972L1527.03 804.731Z" fill="white" fill-opacity="0.87"/>
<path d="M1293.09 619.572L1270.03 601.326L1439.46 387.262L1489.19 426.621C1506.31 440.175 1516.05 454.489 1518.4 469.564C1520.98 484.812 1516.53 499.681 1505.06 514.172L1468.57 560.278C1450.84 582.672 1429.89 589.297 1405.7 580.153L1383.65 691.253L1358.29 671.182L1379.71 564.939L1353.04 543.826L1293.09 619.572ZM1445.51 542.032L1482.01 495.926C1488.61 487.583 1491.21 479.107 1489.81 470.5C1488.41 461.893 1482.99 453.853 1473.55 446.381L1446.87 425.267L1368.68 524.066L1395.35 545.18C1414.89 560.645 1431.61 559.596 1445.51 542.032Z" fill="white" fill-opacity="0.87"/>
<path d="M1138.31 497.074L1115.26 478.828L1284.69 264.764L1334.42 304.123C1351.54 317.677 1361.28 331.991 1363.63 347.066C1366.2 362.314 1361.76 377.183 1350.29 391.673L1305.98 447.659C1294.33 462.37 1280.91 470.311 1265.69 471.483C1250.66 472.437 1234.47 466.049 1217.12 452.321L1190.44 431.208L1138.31 497.074ZM1282.92 429.414L1327.23 373.427C1333.84 365.084 1336.44 356.609 1335.04 348.002C1333.64 339.395 1328.22 331.355 1318.78 323.883L1292.1 302.769L1206.08 411.448L1232.76 432.561C1252.3 448.027 1269.02 446.978 1282.92 429.414Z" fill="white" fill-opacity="0.87"/>
<path d="M1323.32 1042.68L1300.27 1024.43L1469.69 810.365L1519.42 849.724C1536.55 863.279 1546.29 877.593 1548.64 892.667C1551.21 907.915 1546.76 922.785 1535.29 937.275L1498.8 983.381C1481.08 1005.78 1460.12 1012.4 1435.93 1003.26L1413.88 1114.36L1388.53 1094.29L1409.95 988.043L1383.27 966.93L1323.32 1042.68ZM1475.75 965.135L1512.24 919.029C1518.84 910.686 1521.44 902.211 1520.04 893.604C1518.64 884.996 1513.22 876.956 1503.78 869.484L1477.11 848.371L1398.91 947.17L1425.58 968.283C1445.12 983.749 1461.85 982.699 1475.75 965.135Z" fill="white" fill-opacity="0.87"/>
<path d="M1340.75 708.315L1375.33 735.684L1254.32 988.064L1231.27 969.818L1259.17 911.557L1196.27 861.771L1145.97 902.308L1122.92 884.062L1340.75 708.315ZM1337.55 747.557L1216.19 845.4L1270.2 888.148L1337.55 747.557Z" fill="white" fill-opacity="0.87"/>
<path d="M970.408 763.355L938.134 737.811L1075.62 498.463L1098.67 516.709L982.574 718.885L1160.91 565.973L1185.61 585.522L1077.75 794.215L1247.86 634.787L1270.91 653.032L1069.54 841.813L1037.26 816.269L1138.95 618.76L970.408 763.355Z" fill="white" fill-opacity="0.87"/>
<path fill-rule="evenodd" clip-rule="evenodd" d="M878.997 739.469L905.267 760.261L801.535 976.058L988.056 825.787L1014.32 846.577L793.294 1024.9L756.208 995.547L878.997 739.469ZM880.439 745.712L761.197 994.395L793.27 1019.78L1007.92 846.607L988.078 830.906L797.153 984.724L794.095 982.3L900.275 761.412L880.439 745.712ZM1046.86 872.329L1105.98 919.123L1087.86 942.019L1071.39 928.986L935.729 1100.39L952.195 1113.43L934.073 1136.32L874.951 1089.53L893.072 1066.63L909.539 1079.67L1045.2 908.258L1028.74 895.225L1046.86 872.329ZM1047.51 877.948L1034.36 894.571L1050.82 907.604L910.193 1085.29L893.727 1072.25L880.57 1088.88L933.419 1130.7L946.576 1114.08L930.11 1101.05L1070.74 923.368L1087.21 936.4L1100.36 919.777L1047.51 877.948ZM1212.4 1000.42C1194.16 985.981 1177.47 979.307 1162.26 979.931L1162.25 979.931C1147.48 980.509 1134.43 987.789 1123.06 1002.15L1018.8 1133.88C1007.45 1148.22 1003.37 1162.79 1006.25 1177.7C1009.3 1192.44 1019.72 1207.05 1037.97 1221.49C1056.45 1236.11 1073.05 1242.88 1087.85 1242.3C1103.04 1241.68 1116.28 1234.36 1127.64 1220.02L1231.9 1088.29C1243.25 1073.94 1247.24 1059.49 1244.2 1044.81L1244.19 1044.79L1244.19 1044.78C1241.31 1029.84 1230.87 1015.04 1212.4 1000.42ZM1162.09 975.934C1178.63 975.257 1196.24 982.528 1214.89 997.283C1233.74 1012.2 1244.97 1027.76 1248.12 1044.01C1251.44 1060.07 1246.96 1075.7 1235.04 1090.77L1130.77 1222.5C1118.84 1237.58 1104.58 1245.62 1088.02 1246.3L1088.01 1246.3C1071.86 1246.93 1054.33 1239.54 1035.49 1224.62C1016.85 1209.88 1005.64 1194.52 1002.33 1178.5L1002.32 1178.49L1002.32 1178.48C999.18 1162.2 1003.73 1146.47 1015.66 1131.4L1119.93 999.665C1131.85 984.603 1145.91 976.568 1162.09 975.934ZM1168.41 1003.91C1178.02 1003.86 1188.43 1008.48 1199.58 1017.3C1210.72 1026.12 1217.61 1035.19 1219.77 1044.56C1221.95 1054.03 1219.21 1063.4 1211.98 1072.52L1107.72 1204.26C1100.5 1213.38 1092.01 1218.21 1082.29 1218.26C1072.68 1218.31 1062.27 1213.69 1051.13 1204.86C1039.98 1196.04 1033.09 1186.98 1030.93 1177.61C1028.75 1168.14 1031.49 1158.77 1038.72 1149.64L1142.98 1017.91C1150.21 1008.78 1158.69 1003.96 1168.41 1003.91ZM1168.43 1007.91C1160.22 1007.95 1152.79 1011.96 1146.12 1020.39L1041.85 1152.13C1035.18 1160.56 1032.99 1168.71 1034.83 1176.71C1036.7 1184.82 1042.8 1193.17 1053.61 1201.73C1064.42 1210.28 1073.95 1214.3 1082.27 1214.26C1090.48 1214.22 1097.91 1210.21 1104.58 1201.77L1208.85 1070.04C1215.52 1061.61 1217.72 1053.45 1215.87 1045.46C1214 1037.35 1207.9 1029 1197.09 1020.44C1186.28 1011.88 1176.75 1007.87 1168.43 1007.91ZM712.185 1006.87L743.424 1031.59L555.95 1268.46L629.419 1326.61L607.871 1353.83L503.163 1270.96L712.185 1006.87ZM712.839 1012.49L508.782 1270.31L607.217 1348.22L623.8 1327.26L550.331 1269.12L737.805 1032.25L712.839 1012.49ZM849.908 1115.87L921.294 1172.37L899.746 1199.6L879.673 1183.71L713.746 1393.35L733.819 1409.24L712.272 1436.47L640.885 1379.96L662.433 1352.74L682.507 1368.63L848.433 1158.99L828.36 1143.1L849.908 1115.87ZM850.562 1121.49L833.979 1142.44L854.052 1158.33L683.161 1374.25L663.087 1358.36L646.504 1379.31L711.618 1430.85L728.2 1409.89L708.127 1394.01L879.019 1178.09L899.092 1193.98L915.675 1173.03L850.562 1121.49ZM986.234 1223.77L1016.93 1248.07L947.315 1509.72L1101.46 1314.97L1132.69 1339.69L923.673 1603.78L892.973 1579.49L962.592 1317.84L808.451 1512.59L777.212 1487.86L986.234 1223.77ZM986.888 1229.39L782.831 1487.21L807.797 1506.97L965.433 1307.8L968.934 1309.56L897.513 1577.98L923.019 1598.17L1127.08 1340.35L1102.11 1320.59L944.474 1519.75L940.973 1518L1012.39 1249.58L986.888 1229.39ZM1272.58 1445.71C1250.29 1428.07 1229.98 1419.99 1211.58 1420.96L1211.58 1420.96C1193.68 1421.87 1177.78 1430.93 1163.85 1448.53C1154.43 1460.44 1148.1 1471.42 1144.78 1481.48C1141.96 1491.44 1141.35 1503.72 1143.05 1518.4C1143.05 1518.4 1143.05 1518.41 1143.06 1518.41L1159.06 1643.37L1159.06 1643.38L1159.06 1643.39C1160.36 1654.56 1159.74 1663.95 1157.04 1671.44C1154.83 1678.83 1149.91 1687.25 1142.44 1696.68C1134.89 1706.22 1125.26 1711.11 1113.69 1711.18C1102.12 1711.24 1089.66 1705.78 1076.37 1695.26C1063.08 1684.74 1054.91 1673.87 1052.31 1662.6C1049.7 1651.28 1052.5 1640.52 1060.45 1630.48L1087.49 1596.32L1062.52 1576.56L1036.75 1609.11C1022.18 1627.52 1017 1645.46 1020.74 1663.04C1024.5 1680.71 1037.35 1698.45 1059.79 1716.21C1082.23 1733.97 1102.45 1742.41 1120.51 1742C1138.48 1741.6 1154.74 1732.44 1169.31 1714.03C1178.76 1702.1 1184.97 1691.25 1188.07 1681.47L1188.08 1681.45L1188.08 1681.44C1191.38 1671.41 1192.59 1659.18 1191.63 1644.67L1174.44 1518.86C1174.44 1518.85 1174.43 1518.84 1174.43 1518.83C1172.65 1507.7 1172.91 1498.44 1175.42 1491.17C1177.89 1484.03 1182.93 1475.72 1190.41 1466.28C1198.12 1456.53 1207.54 1451.26 1218.6 1450.75L1218.62 1450.75L1218.64 1450.75C1229.95 1450.46 1242.02 1455.61 1254.79 1465.71C1267.54 1475.81 1275.21 1486.27 1277.26 1497.16C1279.58 1508.26 1276.63 1518.89 1268.7 1528.9L1241.67 1563.06L1266.63 1582.82L1292.4 1550.27C1306.99 1531.84 1312.43 1514.09 1309.21 1496.93C1305.97 1479.7 1293.93 1462.61 1272.58 1445.71ZM1211.37 1416.97C1231.13 1415.92 1252.38 1424.63 1275.06 1442.58C1296.8 1459.78 1309.66 1477.64 1313.14 1496.2C1316.63 1514.82 1310.6 1533.71 1295.54 1552.75L1267.29 1588.44L1236.05 1563.72L1265.57 1526.42C1272.89 1517.17 1275.38 1507.73 1273.34 1497.96L1273.33 1497.94L1273.33 1497.92C1271.54 1488.37 1264.7 1478.66 1252.31 1468.85C1239.92 1459.05 1228.76 1454.5 1218.76 1454.75C1209.04 1455.2 1200.65 1459.78 1193.55 1468.76C1186.19 1478.05 1181.46 1485.95 1179.2 1492.48C1176.99 1498.88 1176.65 1507.42 1178.39 1518.22L1178.39 1518.24L1195.61 1644.27L1195.62 1644.34C1196.61 1659.21 1195.39 1672.01 1191.88 1682.68C1188.58 1693.08 1182.07 1704.36 1172.45 1716.51C1157.36 1735.58 1140.07 1745.57 1120.6 1746C1101.22 1746.43 1080.1 1737.39 1057.31 1719.35C1034.51 1701.31 1020.86 1682.83 1016.83 1663.87C1012.78 1644.81 1018.53 1625.69 1033.62 1606.63L1061.87 1570.94L1093.11 1595.66L1063.59 1632.96C1056.28 1642.19 1053.91 1651.72 1056.21 1661.7C1058.52 1671.72 1065.92 1681.88 1078.85 1692.12C1091.79 1702.36 1103.38 1707.23 1113.67 1707.18C1123.94 1707.12 1132.45 1702.86 1139.3 1694.2C1146.65 1684.92 1151.23 1676.95 1153.22 1670.25L1153.24 1670.19L1153.26 1670.14C1155.69 1663.43 1156.35 1654.71 1155.09 1643.87C1155.09 1643.86 1155.09 1643.86 1155.09 1643.85L1139.09 1518.9L1139.08 1518.89L1139.08 1518.87C1137.33 1503.85 1137.92 1490.98 1140.95 1480.34L1140.96 1480.3L1140.97 1480.27C1144.48 1469.61 1151.09 1458.2 1160.72 1446.04C1175.18 1427.77 1192.07 1417.95 1211.37 1416.97Z" fill="white" fill-opacity="0.6"/>
<path d="M538.704 577.961L462.423 675.595L247.296 507.52L320.991 413.195L340.849 428.709L285.255 499.867L361.377 559.34L406.628 501.421L426.486 516.935L381.234 574.854L460.666 636.913L518.846 562.446L538.704 577.961Z" fill="white" fill-opacity="0.87"/>
<path d="M355.023 813.06L336.922 836.228L121.795 668.152L160.841 618.177C174.287 600.967 188.539 591.138 203.598 588.69C218.83 586.022 233.727 590.377 248.289 601.754L294.625 637.955C317.13 655.538 323.887 676.452 314.895 700.695L426.132 722.045L406.221 747.529L299.846 726.779L278.901 753.588L355.023 813.06ZM276.524 661.123L230.189 624.922C221.805 618.371 213.313 615.823 204.715 617.278C196.116 618.733 188.111 624.204 180.698 633.691L159.754 660.5L259.043 738.073L279.988 711.265C295.33 691.627 294.175 674.913 276.524 661.123Z" fill="white" fill-opacity="0.87"/>
<path d="M233.501 968.601L215.401 991.769L0.273804 823.693L39.3191 773.718C52.7651 756.508 67.0177 746.679 82.0769 744.231C97.3085 741.563 112.206 745.918 126.768 757.295L183.032 801.253C197.815 812.803 205.841 826.18 207.109 841.384C208.157 856.416 201.872 872.647 188.253 890.078L167.308 916.886L233.501 968.601ZM164.931 824.421L108.668 780.463C100.283 773.912 91.7917 771.364 83.1933 772.819C74.595 774.274 66.5895 779.745 59.1769 789.232L38.2321 816.041L147.45 901.371L168.395 874.563C183.738 854.926 182.583 838.212 164.931 824.421Z" fill="white" fill-opacity="0.87"/>
<path d="M716.4 858.914L698.299 882.081L483.172 714.006L522.217 664.03C535.664 646.82 549.916 636.991 564.975 634.544C580.207 631.876 595.104 636.23 609.666 647.608L656.001 683.809C678.507 701.392 685.264 722.305 676.272 746.549L787.509 767.899L767.598 793.383L661.223 772.633L640.278 799.441L716.4 858.914ZM637.901 706.976L591.566 670.775C583.182 664.225 574.69 661.677 566.092 663.131C557.493 664.586 549.488 670.057 542.075 679.545L521.131 706.353L620.42 783.926L641.365 757.118C656.707 737.481 655.552 720.767 637.901 706.976Z" fill="white" fill-opacity="0.87"/>
<path d="M381.935 843.585L409.086 808.833L662.223 928.257L644.123 951.425L585.687 923.891L536.298 987.105L577.151 1037.14L559.051 1060.31L381.935 843.585ZM421.196 846.543L519.802 967.288L562.209 913.01L421.196 846.543Z" fill="white" fill-opacity="0.87"/>
<path d="M439.307 1213.58L413.967 1246.01L173.758 1110.04L191.858 1086.87L394.761 1201.69L240.729 1024.32L260.123 999.497L469.49 1106.04L308.994 936.945L327.094 913.777L517.139 1113.96L491.798 1146.39L293.653 1045.95L439.307 1213.58Z" fill="white" fill-opacity="0.87"/>
<path fill-rule="evenodd" clip-rule="evenodd" d="M701.819 17.9956C687.402 6.73195 672.923 2.83968 658.26 5.97341L658.247 5.97623L658.233 5.97888C643.312 8.95755 628.574 19.4857 614.074 38.045C599.751 56.378 593.182 73.1153 593.902 88.3189L593.902 88.3228C594.573 103.09 601.936 116.098 616.365 127.372L748.751 230.803C763.162 242.062 777.758 246.05 792.654 243.081C807.366 239.932 821.911 229.42 836.237 211.084C850.745 192.514 857.41 175.866 856.74 161.069C856.021 145.892 848.62 132.69 834.204 121.427L701.819 17.9956ZM657.437 2.05897C673.481 -1.36573 689.136 3.01086 704.281 14.8436L836.667 118.275C851.818 130.112 859.951 144.325 860.735 160.88L860.735 160.884C861.469 177.032 854.184 194.609 839.389 213.547C824.758 232.273 809.472 243.577 793.477 246.995L793.463 246.998L793.45 247.001C777.197 250.245 761.439 245.792 746.288 233.955L613.902 130.524C598.765 118.697 590.642 104.683 589.907 88.5043C589.125 71.9773 596.286 54.3159 610.922 35.5823C625.723 16.6376 641.211 5.30268 657.437 2.05897ZM658.166 30.4005C667.624 28.1577 677.007 30.8439 686.181 38.0111L818.567 141.442C827.74 148.609 832.617 157.064 832.729 166.784C832.839 176.395 828.282 186.832 819.531 198.032C810.78 209.233 801.756 216.18 792.404 218.398C782.945 220.641 773.562 217.954 764.388 210.787L632.003 107.356C622.829 100.189 617.953 91.7343 617.841 82.0143C617.73 72.4034 622.288 61.9666 631.039 50.766C639.789 39.5655 648.814 32.6182 658.166 30.4005ZM659.089 34.2926C650.996 36.2117 642.678 42.3649 634.191 53.2287C625.703 64.0924 621.745 73.6516 621.84 81.9682C621.935 90.1758 625.987 97.5804 634.465 104.204L766.851 207.635C775.329 214.259 783.494 216.4 791.481 214.506C799.573 212.587 807.891 206.433 816.379 195.57C824.866 184.706 828.825 175.147 828.729 166.83C828.634 158.623 824.582 151.218 816.104 144.594L683.718 41.1632C675.24 34.5395 667.075 32.3987 659.089 34.2926ZM1017.29 53.4284C1003.29 56.147 989.403 66.0415 975.677 83.6102C961.351 101.947 954.879 118.564 955.762 133.53L955.762 133.533C956.597 148.083 964.043 160.992 978.485 172.275C988.283 179.93 997.284 185.034 1005.49 187.688C1013.62 189.936 1023.65 190.375 1035.64 188.903C1035.65 188.903 1035.65 188.902 1035.65 188.902L1138.08 175.129L1138.09 175.127C1147.28 173.999 1155.04 174.457 1161.27 176.657C1167.39 178.449 1174.37 182.473 1182.16 188.559C1190.1 194.767 1194.22 202.736 1194.33 212.349C1194.44 221.953 1189.98 232.278 1181.39 243.267C1172.81 254.255 1163.87 261.085 1154.52 263.301C1145.13 265.528 1136.19 263.252 1127.83 256.725L1099.95 234.943L1084.31 254.958L1110.87 275.706C1125.99 287.516 1140.62 291.623 1154.89 288.496C1169.25 285.348 1183.67 274.785 1198.1 256.319C1212.52 237.853 1219.29 221.304 1218.87 206.607C1218.45 192.004 1210.92 178.802 1195.81 166.992C1185.99 159.322 1177.09 154.308 1169.11 151.832L1169.1 151.829L1169.09 151.825C1160.9 149.187 1150.91 148.257 1139.05 149.118L1035.96 163.868C1035.95 163.87 1035.94 163.871 1035.93 163.872C1026.79 165.399 1019.12 165.239 1013.07 163.19C1007.14 161.183 1000.27 157.06 992.468 150.966C984.364 144.635 979.929 136.851 979.446 127.661L979.445 127.64L979.444 127.619C979.148 118.223 983.357 108.215 991.607 97.6551C999.845 87.1103 1008.46 80.6947 1017.5 78.9312C1026.72 76.9461 1035.55 79.3473 1043.87 85.8517L1071.75 107.634L1087.39 87.6183L1060.84 66.8705C1045.7 55.0416 1031.22 50.7234 1017.29 53.4284ZM1016.53 49.5018C1031.92 46.512 1047.55 51.4134 1063.3 63.7185L1093.01 86.9289L1072.44 113.248L1041.41 89.0037C1033.86 83.1011 1026.2 81.1429 1018.33 82.8453L1018.3 82.8498L1018.28 82.8538C1010.58 84.3504 1002.72 89.9303 994.759 100.118C986.812 110.289 983.193 119.388 983.442 127.473C983.86 135.319 987.595 142.084 994.93 147.814C1002.58 153.787 1009.04 157.602 1014.35 159.401C1019.54 161.157 1026.47 161.398 1035.3 159.923L1035.32 159.919L1138.62 145.139L1138.69 145.134C1150.92 144.239 1161.48 145.172 1170.31 148.015C1178.91 150.685 1188.23 155.998 1198.27 163.84C1214.04 176.164 1222.4 190.384 1222.86 206.493C1223.32 222.508 1215.96 239.959 1201.25 258.781C1186.54 277.604 1171.39 288.973 1155.74 292.403C1140 295.853 1124.18 291.182 1108.41 278.858L1078.7 255.648L1099.26 229.328L1130.29 253.573C1137.83 259.457 1145.55 261.319 1153.6 259.409C1161.7 257.488 1169.93 251.438 1178.24 240.804C1186.55 230.17 1190.43 220.719 1190.33 212.395C1190.24 204.081 1186.75 197.225 1179.69 191.711C1172.06 185.748 1165.54 182.063 1160.09 180.482L1160.04 180.465L1159.98 180.445C1154.54 178.512 1147.45 178.009 1138.59 179.096C1138.58 179.097 1138.58 179.097 1138.58 179.098L1036.15 192.87L1036.14 192.872C1023.79 194.388 1013.18 193.974 1004.38 191.531L1004.35 191.52L1004.31 191.507C995.496 188.668 986.066 183.274 976.022 175.427C960.899 163.611 952.686 149.719 951.769 133.766C950.805 117.441 957.89 99.8788 972.525 81.1476C986.553 63.1927 1001.2 52.4781 1016.53 49.5018ZM533.45 144.975L556.46 162.953L543.531 179.501L715.79 314.084L728.719 297.536L751.729 315.514L705.308 374.93L682.298 356.952L695.227 340.404L522.968 205.82L510.039 222.369L487.029 204.391L533.45 144.975ZM534.139 150.59L492.644 203.702L509.349 216.754L522.278 200.206L700.842 339.715L687.913 356.263L704.619 369.315L746.114 316.203L729.408 303.151L716.479 319.699L537.916 180.19L550.845 163.642L534.139 150.59ZM889.087 198.176L1107.37 368.714L1087.23 394.492L873.686 339.111L1033.15 463.701L1012.59 490.021L794.312 319.482L814.452 293.705L1027.99 349.086L868.524 224.495L889.087 198.176ZM889.776 203.791L874.139 223.806L1038.04 351.864L1036.31 355.376L815.988 298.236L799.927 318.793L1011.9 484.406L1027.54 464.39L863.633 336.333L865.367 332.821L1085.69 389.961L1101.75 369.404L889.776 203.791ZM461.483 237.089L641.194 456.992L612.075 494.262L355.229 373.088L375.855 346.688L592.3 449.059L440.858 263.487L461.483 237.089ZM461.553 243.496L445.977 263.433L600.995 453.386L598.59 456.458L377.037 351.672L361.462 371.606L610.891 489.28L636.074 457.048L461.553 243.496ZM752.928 372.452L775.937 390.429L763.009 406.978L935.268 541.561L948.197 525.013L971.207 542.99L924.786 602.406L901.776 584.429L914.705 567.881L742.445 433.297L729.517 449.845L706.507 431.868L752.928 372.452ZM753.617 378.067L712.121 431.179L728.827 444.231L741.756 427.682L920.319 567.191L907.39 583.74L924.096 596.792L965.592 543.68L948.886 530.628L935.957 547.176L757.394 407.667L770.323 391.119L753.617 378.067ZM638.365 519.085L833.635 671.646L880.954 611.079L903.964 629.057L836.081 715.943L617.802 545.404L638.365 519.085ZM639.055 524.7L623.417 544.715L835.392 710.328L898.349 629.746L881.644 616.694L834.324 677.26L639.055 524.7Z" fill="white" fill-opacity="0.6"/>
</svg>
